<?xml version="1.0" standalone="no"?>
<!DOCTYPE svg PUBLIC "-//W3C//DTD SVG 20010904//EN"
 "http://www.w3.org/TR/2001/REC-SVG-20010904/DTD/svg10.dtd">
<svg version="1.0" xmlns="http://www.w3.org/2000/svg"
 width="32.000000pt" height="32.000000pt" viewBox="0 0 32.000000 32.000000"
 preserveAspectRatio="xMidYMid meet">

<g transform="translate(0.000000,32.000000) scale(0.100000,-0.100000)"
fill="#000000" stroke="none">
<path d="M6 312 c-3 -6 -2 -14 4 -17 8 -5 8 -11 0 -20 -7 -8 -10 -54 -8 -121
l3 -109 130 -3 c114 -2 132 -5 151 -23 12 -11 24 -16 27 -12 3 5 -63 78 -147
162 -85 85 -156 149 -160 143z m60 -73 c20 -18 22 -29 17 -65 -5 -37 -2 -46
22 -69 23 -24 32 -27 70 -22 31 5 46 2 55 -8 11 -13 -2 -15 -99 -15 l-111 0 0
100 c0 108 6 117 46 79z m115 -132 c-29 -29 -92 29 -77 69 6 15 12 12 46 -21
25 -24 36 -43 31 -48z"/>
<path d="M85 290 c-7 -12 -7 -12 73 -10 38 1 62 -3 62 -9 0 -6 18 -11 40 -11
l40 0 0 -99 c0 -58 4 -103 10 -106 7 -4 10 31 8 107 l-3 113 -35 3 c-19 2 -39
8 -44 13 -13 12 -143 12 -151 -1z"/>
<path d="M134 233 c4 -4 21 -12 39 -18 23 -7 35 -19 42 -42 15 -46 25 -51 25
-14 0 43 -38 81 -81 81 -18 0 -29 -3 -25 -7z"/>
<path d="M260 230 c0 -5 5 -10 10 -10 6 0 10 5 10 10 0 6 -4 10 -10 10 -5 0
-10 -4 -10 -10z"/>
</g>
</svg>
