<svg version="1.1" id="Layer_1" xmlns="http://www.w3.org/2000/svg" xmlns:xlink="http://www.w3.org/1999/xlink" x="0px" y="0px"
	 width="100%" viewBox="0 0 256 256" enable-background="new 0 0 256 256" xml:space="preserve">
<path fill="#000000" opacity="1.000000" stroke="none" 
	d="
M150.000000,257.000000 
	C100.000000,257.000000 50.500008,257.000000 1.000007,257.000000 
	C1.000004,171.666672 1.000004,86.333351 1.000002,1.000018 
	C86.333321,1.000012 171.666641,1.000012 257.000000,1.000006 
	C257.000000,86.333313 257.000000,171.666626 257.000000,256.999969 
	C221.500000,257.000000 186.000000,257.000000 150.000000,257.000000 
M244.997894,149.500000 
	C244.997940,116.019897 245.000137,82.539803 244.996475,49.059700 
	C244.995590,40.902348 241.059738,37.003841 232.825211,37.003555 
	C163.533066,37.001160 94.240906,37.000751 24.948755,37.004234 
	C17.073757,37.004631 13.005736,41.013176 13.004995,48.784790 
	C12.999892,102.253014 12.999877,155.721237 13.005101,209.189468 
	C13.005863,216.984055 17.059937,220.995468 24.924688,220.995865 
	C94.383408,220.999374 163.842117,220.999985 233.300842,220.995056 
	C240.790985,220.994522 244.988892,216.858566 244.993652,209.464951 
	C245.006287,189.809967 244.997910,170.154984 244.997894,149.500000 
z"/>
<path fill="#9F9F9F" opacity="1.000000" stroke="none" 
	d="
M244.997894,150.000000 
	C244.997910,170.154984 245.006287,189.809967 244.993652,209.464951 
	C244.988892,216.858566 240.790985,220.994522 233.300842,220.995056 
	C163.842117,220.999985 94.383408,220.999374 24.924688,220.995865 
	C17.059937,220.995468 13.005863,216.984055 13.005101,209.189468 
	C12.999877,155.721237 12.999892,102.253014 13.004995,48.784790 
	C13.005736,41.013176 17.073757,37.004631 24.948755,37.004234 
	C94.240906,37.000751 163.533066,37.001160 232.825211,37.003555 
	C241.059738,37.003841 244.995590,40.902348 244.996475,49.059700 
	C245.000137,82.539803 244.997940,116.019897 244.997894,150.000000 
M42.500702,45.002308 
	C37.834396,45.002460 33.168045,44.989433 28.501799,45.005898 
	C21.736471,45.029762 21.009224,45.729542 21.007933,52.452206 
	C20.998487,101.615677 21.000044,150.779144 21.017830,199.942612 
	C21.018324,201.310013 21.239532,202.677338 21.441349,205.010239 
	C23.053638,202.822525 24.060009,201.527603 24.992403,200.181458 
	C44.821476,171.553162 64.632751,142.912506 84.470520,114.290222 
	C90.233109,105.975845 95.795242,106.021286 101.400749,114.409966 
	C112.046753,130.341736 122.657677,146.296921 133.297028,162.233139 
	C134.254135,163.666718 135.312332,165.032806 136.618286,166.837463 
	C146.059372,154.258224 155.043869,142.274902 164.042313,130.302017 
	C170.737213,121.394081 175.354599,121.399330 181.807617,130.276184 
	C198.855927,153.728073 215.907166,177.177841 232.974060,200.616196 
	C233.949371,201.955643 235.075333,203.185394 236.997406,205.516968 
	C236.997406,202.413559 236.997406,200.922714 236.997406,199.431885 
	C236.997421,150.601730 237.000381,101.771568 236.994278,52.941406 
	C236.993362,45.571651 236.419006,45.005589 228.988297,45.005043 
	C167.158981,45.000496 105.329674,45.002377 42.500702,45.002308 
M110.500000,212.997940 
	C125.728806,212.997940 140.957611,212.997940 157.560974,212.997940 
	C135.699631,180.207169 114.628464,148.601593 92.969162,116.113869 
	C70.421776,148.681625 48.516514,180.321899 25.894175,212.997925 
	C54.659069,212.997925 82.079536,212.997925 110.500000,212.997940 
M142.227798,172.979416 
	C142.834717,174.786484 143.096558,176.818542 144.104340,178.364273 
	C150.833328,188.685165 157.824097,198.836243 164.491852,209.195648 
	C166.357285,212.093887 168.508713,213.080582 171.852631,213.057602 
	C190.168976,212.931763 208.486664,213.006592 226.803833,212.980820 
	C228.172089,212.978882 229.539978,212.729172 231.699890,212.516785 
	C211.947220,185.384262 192.726028,158.981750 172.913834,131.767441 
	C162.281418,145.982010 152.430023,159.152451 142.227798,172.979416 
z"/>
<path fill="#FAFAFA" opacity="1.000000" stroke="none" 
	d="
M43.000534,45.002312 
	C105.329674,45.002377 167.158981,45.000496 228.988297,45.005043 
	C236.419006,45.005589 236.993362,45.571651 236.994278,52.941406 
	C237.000381,101.771568 236.997421,150.601730 236.997406,199.431885 
	C236.997406,200.922714 236.997406,202.413559 236.997406,205.516968 
	C235.075333,203.185394 233.949371,201.955643 232.974060,200.616196 
	C215.907166,177.177841 198.855927,153.728073 181.807617,130.276184 
	C175.354599,121.399330 170.737213,121.394081 164.042313,130.302017 
	C155.043869,142.274902 146.059372,154.258224 136.618286,166.837463 
	C135.312332,165.032806 134.254135,163.666718 133.297028,162.233139 
	C122.657677,146.296921 112.046753,130.341736 101.400749,114.409966 
	C95.795242,106.021286 90.233109,105.975845 84.470520,114.290222 
	C64.632751,142.912506 44.821476,171.553162 24.992403,200.181458 
	C24.060009,201.527603 23.053638,202.822525 21.441349,205.010239 
	C21.239532,202.677338 21.018324,201.310013 21.017830,199.942612 
	C21.000044,150.779144 20.998487,101.615677 21.007933,52.452206 
	C21.009224,45.729542 21.736471,45.029762 28.501799,45.005898 
	C33.168045,44.989433 37.834396,45.002460 43.000534,45.002312 
M170.121262,67.654884 
	C163.376282,76.714203 163.318390,86.464500 169.964020,94.139214 
	C176.059479,101.178604 186.366760,103.093094 194.500092,98.513550 
	C201.670319,94.476303 205.316589,88.166183 204.905655,79.977783 
	C204.494492,71.784805 200.251236,65.784027 192.669769,62.615383 
	C184.429504,59.171406 177.040283,61.090424 170.121262,67.654884 
z"/>
<path fill="#E0E0E0" opacity="1.000000" stroke="none" 
	d="
M110.000000,212.997925 
	C82.079536,212.997925 54.659069,212.997925 25.894175,212.997925 
	C48.516514,180.321899 70.421776,148.681625 92.969162,116.113869 
	C114.628464,148.601593 135.699631,180.207169 157.560974,212.997940 
	C140.957611,212.997940 125.728806,212.997940 110.000000,212.997925 
z"/>
<path fill="#E0E0E0" opacity="1.000000" stroke="none" 
	d="
M142.403214,172.651154 
	C152.430023,159.152451 162.281418,145.982010 172.913834,131.767441 
	C192.726028,158.981750 211.947220,185.384262 231.699890,212.516785 
	C229.539978,212.729172 228.172089,212.978882 226.803833,212.980820 
	C208.486664,213.006592 190.168976,212.931763 171.852631,213.057602 
	C168.508713,213.080582 166.357285,212.093887 164.491852,209.195648 
	C157.824097,198.836243 150.833328,188.685165 144.104340,178.364273 
	C143.096558,176.818542 142.834717,174.786484 142.403214,172.651154 
z"/>
<path fill="#A1A1A1" opacity="1.000000" stroke="none" 
	d="
M170.368347,67.391586 
	C177.040283,61.090424 184.429504,59.171406 192.669769,62.615383 
	C200.251236,65.784027 204.494492,71.784805 204.905655,79.977783 
	C205.316589,88.166183 201.670319,94.476303 194.500092,98.513550 
	C186.366760,103.093094 176.059479,101.178604 169.964020,94.139214 
	C163.318390,86.464500 163.376282,76.714203 170.368347,67.391586 
M173.406723,83.748238 
	C175.115417,89.261810 178.790756,92.597725 184.582733,92.866707 
	C189.713730,93.104996 193.577438,90.523949 195.763504,85.908020 
	C197.982666,81.222206 197.156036,76.797386 193.663101,72.968788 
	C190.143433,69.110901 185.135635,68.046196 180.443817,70.030922 
	C175.385925,72.170502 173.019592,76.410522 173.406723,83.748238 
z"/>
<path fill="#DFDFDF" opacity="1.000000" stroke="none" 
	d="
M173.313232,83.361679 
	C173.019592,76.410522 175.385925,72.170502 180.443817,70.030922 
	C185.135635,68.046196 190.143433,69.110901 193.663101,72.968788 
	C197.156036,76.797386 197.982666,81.222206 195.763504,85.908020 
	C193.577438,90.523949 189.713730,93.104996 184.582733,92.866707 
	C178.790756,92.597725 175.115417,89.261810 173.313232,83.361679 
z"/>
</svg>